<svg width="200" height="200" viewBox="0 0 200 200" xmlns="http://www.w3.org/2000/svg">
  <defs>
    <linearGradient id="bananaGradient" x1="0%" y1="0%" x2="100%" y2="100%">
      <stop offset="0%" style="stop-color:#fdcb6e;stop-opacity:1" />
      <stop offset="100%" style="stop-color:#e17055;stop-opacity:1" />
    </linearGradient>
  </defs>
  
  <!-- Banana body -->
  <path d="M 50 160 Q 60 140 80 120 Q 100 100 120 90 Q 140 85 150 90 Q 155 95 150 100 Q 140 105 120 110 Q 100 120 80 140 Q 60 160 50 170 Q 45 175 50 160" 
        fill="url(#bananaGradient)" stroke="#e17055" stroke-width="2"/>
  
  <!-- Banana ridges -->
  <path d="M 55 155 Q 65 135 85 115 Q 105 95 125 90" fill="none" stroke="#e17055" stroke-width="1.5" opacity="0.7"/>
  <path d="M 52 165 Q 62 145 82 125 Q 102 105 122 95" fill="none" stroke="#e17055" stroke-width="1.5" opacity="0.7"/>
  
  <!-- Banana tip -->
  <ellipse cx="48" cy="168" rx="6" ry="8" fill="#636e72" />
  
  <!-- Highlight -->
  <path d="M 70 145 Q 80 130 95 120 Q 110 110 120 105" fill="none" stroke="#fff" stroke-width="3" opacity="0.4"/>
</svg>