<svg width="200" height="200" viewBox="0 0 200 200" xmlns="http://www.w3.org/2000/svg">
  <defs>
    <linearGradient id="chickenGradient" x1="0%" y1="0%" x2="100%" y2="100%">
      <stop offset="0%" style="stop-color:#fab1a0;stop-opacity:1" />
      <stop offset="100%" style="stop-color:#e17055;stop-opacity:1" />
    </linearGradient>
  </defs>
  
  <!-- Chicken breast main shape -->
  <path d="M 60 80 Q 80 70 120 80 Q 140 90 150 110 Q 145 140 130 155 Q 100 165 80 155 Q 50 140 50 110 Q 55 90 60 80" 
        fill="url(#chickenGradient)"/>
  
  <!-- Meat texture lines -->
  <path d="M 75 95 Q 95 90 115 95" fill="none" stroke="#e17055" stroke-width="1.5" opacity="0.6"/>
  <path d="M 70 110 Q 100 105 130 110" fill="none" stroke="#e17055" stroke-width="1.5" opacity="0.6"/>
  <path d="M 75 125 Q 100 120 125 125" fill="none" stroke="#e17055" stroke-width="1.5" opacity="0.6"/>
  <path d="M 80 140 Q 100 135 120 140" fill="none" stroke="#e17055" stroke-width="1.5" opacity="0.6"/>
  
  <!-- Highlight -->
  <ellipse cx="90" cy="100" rx="15" ry="10" fill="#fff" opacity="0.4"/>
  
  <!-- Small meat details -->
  <circle cx="110" cy="115" r="2" fill="#e17055" opacity="0.7"/>
  <circle cx="85" cy="130" r="1.5" fill="#e17055" opacity="0.7"/>
</svg>