<svg width="200" height="200" viewBox="0 0 200 200" xmlns="http://www.w3.org/2000/svg">
  <defs>
    <linearGradient id="laptopGradient" x1="0%" y1="0%" x2="100%" y2="100%">
      <stop offset="0%" style="stop-color:#636e72;stop-opacity:1" />
      <stop offset="100%" style="stop-color:#2d3436;stop-opacity:1" />
    </linearGradient>
    <linearGradient id="screenGradient" x1="0%" y1="0%" x2="100%" y2="100%">
      <stop offset="0%" style="stop-color:#74b9ff;stop-opacity:1" />
      <stop offset="100%" style="stop-color:#0984e3;stop-opacity:1" />
    </linearGradient>
  </defs>
  
  <!-- Laptop base -->
  <rect x="30" y="130" width="140" height="20" rx="10" fill="url(#laptopGradient)"/>
  
  <!-- Laptop screen -->
  <rect x="40" y="50" width="120" height="85" rx="8" fill="url(#laptopGradient)"/>
  
  <!-- Screen display -->
  <rect x="48" y="58" width="104" height="70" rx="4" fill="url(#screenGradient)"/>
  
  <!-- Keyboard area -->
  <rect x="40" y="135" width="120" height="10" rx="2" fill="#2d3436"/>
  
  <!-- Keyboard keys -->
  <rect x="45" y="137" width="8" height="6" rx="1" fill="#636e72"/>
  <rect x="55" y="137" width="8" height="6" rx="1" fill="#636e72"/>
  <rect x="65" y="137" width="8" height="6" rx="1" fill="#636e72"/>
  <rect x="75" y="137" width="8" height="6" rx="1" fill="#636e72"/>
  <rect x="85" y="137" width="8" height="6" rx="1" fill="#636e72"/>
  <rect x="95" y="137" width="8" height="6" rx="1" fill="#636e72"/>
  <rect x="105" y="137" width="8" height="6" rx="1" fill="#636e72"/>
  <rect x="115" y="137" width="8" height="6" rx="1" fill="#636e72"/>
  <rect x="125" y="137" width="8" height="6" rx="1" fill="#636e72"/>
  <rect x="135" y="137" width="8" height="6" rx="1" fill="#636e72"/>
  <rect x="145" y="137" width="8" height="6" rx="1" fill="#636e72"/>
  
  <!-- Touchpad -->
  <rect x="90" y="140" width="20" height="12" rx="2" fill="#2d3436" stroke="#636e72" stroke-width="1"/>
  
  <!-- Screen reflection -->
  <rect x="55" y="65" width="30" height="40" rx="3" fill="#fff" opacity="0.1"/>
</svg>