<svg width="200" height="200" viewBox="0 0 200 200" xmlns="http://www.w3.org/2000/svg">
  <defs>
    <linearGradient id="tabletGradient" x1="0%" y1="0%" x2="100%" y2="100%">
      <stop offset="0%" style="stop-color:#636e72;stop-opacity:1" />
      <stop offset="100%" style="stop-color:#2d3436;stop-opacity:1" />
    </linearGradient>
    <linearGradient id="tabletScreenGradient" x1="0%" y1="0%" x2="100%" y2="100%">
      <stop offset="0%" style="stop-color:#74b9ff;stop-opacity:1" />
      <stop offset="100%" style="stop-color:#0984e3;stop-opacity:1" />
    </linearGradient>
  </defs>
  
  <!-- Tablet body -->
  <rect x="50" y="30" width="100" height="140" rx="15" fill="url(#tabletGradient)"/>
  
  <!-- Tablet screen -->
  <rect x="58" y="45" width="84" height="110" rx="8" fill="url(#tabletScreenGradient)"/>
  
  <!-- Home button -->
  <circle cx="100" cy="165" r="6" fill="#2d3436"/>
  
  <!-- Camera -->
  <circle cx="100" cy="40" r="3" fill="#2d3436"/>
  
  <!-- Screen content -->
  <rect x="65" y="55" width="70" height="5" rx="2" fill="#fff" opacity="0.8"/>
  <rect x="65" y="65" width="50" height="3" rx="1" fill="#fff" opacity="0.6"/>
  <rect x="65" y="72" width="60" height="3" rx="1" fill="#fff" opacity="0.6"/>
  
  <!-- App icons -->
  <rect x="70" y="85" width="12" height="12" rx="3" fill="#fff" opacity="0.8"/>
  <rect x="88" y="85" width="12" height="12" rx="3" fill="#fff" opacity="0.8"/>
  <rect x="106" y="85" width="12" height="12" rx="3" fill="#fff" opacity="0.8"/>
  <rect x="124" y="85" width="12" height="12" rx="3" fill="#fff" opacity="0.8"/>
  
  <rect x="70" y="105" width="12" height="12" rx="3" fill="#fff" opacity="0.8"/>
  <rect x="88" y="105" width="12" height="12" rx="3" fill="#fff" opacity="0.8"/>
  <rect x="106" y="105" width="12" height="12" rx="3" fill="#fff" opacity="0.8"/>
  <rect x="124" y="105" width="12" height="12" rx="3" fill="#fff" opacity="0.8"/>
  
  <!-- Screen reflection -->
  <rect x="65" y="50" width="20" height="30" rx="4" fill="#fff" opacity="0.15"/>
</svg>